#N canvas 425 120 704 412 10;
#X obj 88 134 midicycle;
#X obj 70 38 bng 15 250 50 0 empty empty empty 17 7 0 10 -262144 -1
-1;
#X msg 60 -3 note 72 127;
#X obj 237 116 % 24;
#X obj 234 60 f 0;
#X obj 266 79 + 1, f 7;
#X obj 137 80 nbx 5 14 -1e+037 1e+037 0 0 empty empty empty 0 -8 0
10 -262144 -1 -1 0 256;
#X msg 135 99 tick \$1;
#X obj 228 31 bng 15 250 50 0 empty empty empty 17 7 0 10 -262144 -1
-1;
#X msg 155 7 note 72 0;
#X obj 261 -1 bng 15 250 50 0 empty empty empty 17 7 0 10 -262144 -1
-1;
#X msg 376 78 stop;
#X obj 105 223 print;
#X msg 14 77 loop 2;
#X msg 29 103 loop 0;
#X msg 22 42 loop 8;
#X msg 72 24 note 75 127;
#X msg 132 50 note 75 0;
#X obj 265 15 metro 200;
#X msg 222 192 quantize 1;
#X msg 269 118 quantize 4;
#X msg 188 223 quantize 0;
#X msg 283 182 quantize 3;
#X msg 324 243 overdub 1;
#X msg 289 274 overdub 0;
#X msg 357 11 save out.bin;
#X msg 412 27 load out.bin;
#X msg 415 173 arm_mode 1;
#X msg 425 199 arm_mode 0;
#X connect 0 0 12 0;
#X connect 1 0 0 0;
#X connect 2 0 0 0;
#X connect 3 0 4 1;
#X connect 4 0 5 0;
#X connect 4 0 6 0;
#X connect 5 0 3 0;
#X connect 6 0 7 0;
#X connect 7 0 0 0;
#X connect 8 0 4 0;
#X connect 9 0 0 0;
#X connect 10 0 18 0;
#X connect 11 0 18 0;
#X connect 13 0 0 0;
#X connect 14 0 0 0;
#X connect 15 0 0 0;
#X connect 16 0 0 0;
#X connect 17 0 0 0;
#X connect 18 0 8 0;
#X connect 19 0 0 0;
#X connect 20 0 0 0;
#X connect 21 0 0 0;
#X connect 22 0 0 0;
#X connect 23 0 0 0;
#X connect 24 0 0 0;
#X connect 25 0 0 0;
#X connect 26 0 0 0;
#X connect 27 0 0 0;
#X connect 28 0 0 0;
