#N canvas 348 146 1366 725 10;
#X obj 70 38 bng 15 250 50 0 empty empty empty 17 7 0 10 -262144 -1
-1;
#X obj 266 41 % 24;
#X obj 234 60 f 0;
#X obj 267 66 + 1, f 7;
#X obj 238 84 nbx 5 14 -1e+037 1e+037 0 0 empty empty empty 0 -8 0
10 -262144 -1 -1 0 256;
#X msg 175 98 tick \$1;
#X obj 228 31 bng 15 250 50 0 empty empty empty 17 7 0 10 -262144 -1
-1;
#X obj 261 -1 bng 15 250 50 0 empty empty empty 17 7 0 10 -262144 -1
-1;
#X msg 302 -4 stop;
#X obj 105 223 print;
#X obj 265 15 metro 200;
#X msg 409 165 quantize 1;
#X msg 269 118 quantize 4;
#X msg 375 196 quantize 0;
#X msg 470 155 quantize 3;
#X msg 393 5 key 60 127;
#X msg 433 18 key 61 127;
#X msg 389 57 key 72 127;
#X msg 430 71 key 73 127;
#X msg 418 97 dest 0 1;
#X msg 481 86 dest 1 2;
#X msg 481 121 dest 1 3;
#X obj 170 234 print sym;
#X msg 60 -3 note 1 72 127;
#X msg 72 24 note 1 75 127;
#X msg 155 7 note 1 72 0;
#X msg 133 50 note 1 75 0;
#X obj 14 158 tgl 15 0 empty empty empty 17 7 0 10 -262144 -1 -1 0
1;
#X msg 14 178 aux \$1;
#X msg 22 250 src -1;
#X msg 24 293 src 1;
#X msg 259 290 key 60 127;
#X msg 271 314 key 63 127;
#X msg 349 282 key 60 0;
#X msg 359 311 key 63 0;
#X msg 438 275 key 72 127;
#X msg 526 271 key 72 0;
#X obj 154 319 bng 15 250 50 0 empty empty empty 17 7 0 10 -262144
-1 -1;
#X msg 334 154 dest 0 2;
#X msg 27 345 overdub 0;
#X msg 29 388 overdub 1;
#X obj 473 304 r screenLine5;
#X obj 470 354 print sl5;
#X obj 552 308 r screenLine3;
#X obj 548 358 print sl3;
#X obj 557 329 r screenLine4;
#X obj 552 380 print sl4;
#X msg 418 205 activepage pg_main;
#X obj 293 361 r screenLine5;
#X obj 582 227 s screenLine5;
#X obj 598 182 bng 15 250 50 0 empty empty empty 17 7 0 10 -262144
-1 -1;
#X obj 91 188 mc_wrapper;
#X obj 572 52 until;
#X msg 549 21 24;
#X msg 590 16 6;
#X obj 144 132 bng 15 250 50 0 empty empty empty 17 7 0 10 -262144
-1 -1;
#X msg 25 80 loop 4;
#X msg 413 126 dest 0 3;
#X msg 664 129 moduleid s2;
#X msg 676 165 activepage pg_main;
#X msg 683 215 activemodule s2;
#X obj 681 75 t b b b;
#X obj 684 53 bng 15 250 50 0 empty empty empty 17 7 0 10 -262144 -1
-1;
#X msg 745 349 knobraw 3 \$1;
#X obj 772 291 hsl 128 15 0 1 0 0 empty empty empty -2 -8 0 10 -262144
-1 -1 6400 1;
#X obj 748 392 print;
#X obj 256 440 r rackMsgs;
#X obj 280 484 print rackMsgs;
#X obj 841 325 hsl 128 15 0 1 0 0 empty empty empty -2 -8 0 10 -262144
-1 -1 1700 1;
#X msg 814 383 knobraw 4 \$1;
#X connect 0 0 51 0;
#X connect 1 0 2 1;
#X connect 2 0 3 0;
#X connect 2 0 4 0;
#X connect 3 0 1 0;
#X connect 4 0 5 0;
#X connect 5 0 51 0;
#X connect 6 0 2 0;
#X connect 7 0 10 0;
#X connect 8 0 10 0;
#X connect 10 0 6 0;
#X connect 11 0 51 0;
#X connect 12 0 51 0;
#X connect 13 0 51 0;
#X connect 14 0 51 0;
#X connect 15 0 51 0;
#X connect 16 0 51 0;
#X connect 17 0 51 0;
#X connect 18 0 51 0;
#X connect 19 0 51 0;
#X connect 20 0 51 0;
#X connect 21 0 51 0;
#X connect 23 0 51 0;
#X connect 24 0 51 0;
#X connect 25 0 51 0;
#X connect 26 0 51 0;
#X connect 27 0 28 0;
#X connect 28 0 51 0;
#X connect 29 0 51 0;
#X connect 30 0 51 0;
#X connect 31 0 51 0;
#X connect 32 0 51 0;
#X connect 33 0 51 0;
#X connect 34 0 51 0;
#X connect 35 0 51 0;
#X connect 36 0 51 0;
#X connect 38 0 51 0;
#X connect 39 0 51 0;
#X connect 40 0 51 0;
#X connect 41 0 42 0;
#X connect 43 0 44 0;
#X connect 45 0 46 0;
#X connect 47 0 51 0;
#X connect 50 0 49 0;
#X connect 51 0 9 0;
#X connect 51 0 37 0;
#X connect 51 1 22 0;
#X connect 52 0 6 0;
#X connect 53 0 52 0;
#X connect 54 0 52 0;
#X connect 55 0 51 1;
#X connect 56 0 51 0;
#X connect 57 0 51 0;
#X connect 58 0 51 0;
#X connect 59 0 51 0;
#X connect 60 0 51 0;
#X connect 61 0 60 0;
#X connect 61 1 59 0;
#X connect 61 2 58 0;
#X connect 62 0 61 0;
#X connect 63 0 51 0;
#X connect 64 0 63 0;
#X connect 66 0 67 0;
#X connect 68 0 69 0;
#X connect 69 0 51 0;
