#N canvas 425 120 704 412 10;
#X obj 70 38 bng 15 250 50 0 empty empty empty 17 7 0 10 -262144 -1
-1;
#X obj 266 41 % 24;
#X obj 234 60 f 0;
#X obj 267 66 + 1, f 7;
#X obj 238 84 nbx 5 14 -1e+037 1e+037 0 0 empty empty empty 0 -8 0
10 -262144 -1 -1 0 256;
#X msg 175 98 tick \$1;
#X obj 228 31 bng 15 250 50 0 empty empty empty 17 7 0 10 -262144 -1
-1;
#X obj 261 -1 bng 15 250 50 0 empty empty empty 17 7 0 10 -262144 -1
-1;
#X msg 302 -4 stop;
#X obj 105 223 print;
#X msg 14 77 loop 2;
#X msg 29 103 loop 0;
#X msg 22 42 loop 8;
#X obj 265 15 metro 200;
#X msg 409 165 quantize 1;
#X msg 269 118 quantize 4;
#X msg 375 196 quantize 0;
#X msg 470 155 quantize 3;
#X obj 97 168 multicycle 12;
#X msg 393 5 key 60 127;
#X msg 433 18 key 61 127;
#X msg 389 57 key 72 127;
#X msg 430 71 key 73 127;
#X msg 418 97 dest 0 1;
#X msg 416 133 dest 0 0;
#X msg 481 86 dest 1 2;
#X msg 481 121 dest 1 3;
#X obj 170 234 print sym;
#X msg 60 -3 note 1 72 127;
#X msg 72 24 note 1 75 127;
#X msg 155 7 note 1 72 0;
#X msg 133 50 note 1 75 0;
#X obj 14 158 tgl 15 0 empty empty empty 17 7 0 10 -262144 -1 -1 0
1;
#X msg 14 178 aux \$1;
#X msg 22 250 src -1;
#X msg 24 293 src 1;
#X msg 259 290 key 60 127;
#X msg 271 314 key 63 127;
#X msg 349 282 key 60 0;
#X msg 359 311 key 63 0;
#X msg 438 275 key 72 127;
#X msg 526 271 key 72 0;
#X obj 154 319 bng 15 250 50 0 empty empty empty 17 7 0 10 -262144
-1 -1;
#X msg 334 154 dest 0 2;
#X connect 0 0 18 0;
#X connect 1 0 2 1;
#X connect 2 0 3 0;
#X connect 2 0 4 0;
#X connect 3 0 1 0;
#X connect 4 0 5 0;
#X connect 5 0 18 0;
#X connect 6 0 2 0;
#X connect 7 0 13 0;
#X connect 8 0 13 0;
#X connect 10 0 18 0;
#X connect 11 0 18 0;
#X connect 12 0 18 0;
#X connect 13 0 6 0;
#X connect 14 0 18 0;
#X connect 15 0 18 0;
#X connect 16 0 18 0;
#X connect 17 0 18 0;
#X connect 18 0 9 0;
#X connect 18 0 42 0;
#X connect 18 1 27 0;
#X connect 19 0 18 0;
#X connect 20 0 18 0;
#X connect 21 0 18 0;
#X connect 22 0 18 0;
#X connect 23 0 18 0;
#X connect 24 0 18 0;
#X connect 25 0 18 0;
#X connect 26 0 18 0;
#X connect 28 0 18 0;
#X connect 29 0 18 0;
#X connect 30 0 18 0;
#X connect 31 0 18 0;
#X connect 32 0 33 0;
#X connect 33 0 18 0;
#X connect 34 0 18 0;
#X connect 35 0 18 0;
#X connect 36 0 18 0;
#X connect 37 0 18 0;
#X connect 38 0 18 0;
#X connect 39 0 18 0;
#X connect 40 0 18 0;
#X connect 41 0 18 0;
#X connect 43 0 18 0;
