#N canvas 425 120 704 412 10;
#X obj 70 38 bng 15 250 50 0 empty empty empty 17 7 0 10 -262144 -1
-1;
#X msg 60 -3 note 72 127;
#X obj 266 41 % 24;
#X obj 234 60 f 0;
#X obj 267 66 + 1, f 7;
#X obj 238 84 nbx 5 14 -1e+037 1e+037 0 0 empty empty empty 0 -8 0
10 -262144 -1 -1 0 256;
#X msg 175 98 tick \$1;
#X obj 228 31 bng 15 250 50 0 empty empty empty 17 7 0 10 -262144 -1
-1;
#X msg 155 7 note 72 0;
#X obj 261 -1 bng 15 250 50 0 empty empty empty 17 7 0 10 -262144 -1
-1;
#X msg 302 -4 stop;
#X obj 105 223 print;
#X msg 14 77 loop 2;
#X msg 29 103 loop 0;
#X msg 22 42 loop 8;
#X msg 72 24 note 75 127;
#X msg 132 50 note 75 0;
#X obj 265 15 metro 200;
#X msg 409 165 quantize 1;
#X msg 269 118 quantize 4;
#X msg 375 196 quantize 0;
#X msg 470 155 quantize 3;
#X obj 97 168 multicycle 12;
#X msg 393 5 key 60 127;
#X msg 433 18 key 61 127;
#X msg 389 57 key 72 127;
#X msg 430 71 key 73 127;
#X msg 418 97 dest 0 1;
#X msg 416 133 dest 0 0;
#X msg 481 86 dest 1 2;
#X msg 481 121 dest 1 3;
#X obj 170 234 print sym;
#X connect 0 0 22 0;
#X connect 1 0 22 0;
#X connect 2 0 3 1;
#X connect 3 0 4 0;
#X connect 3 0 5 0;
#X connect 4 0 2 0;
#X connect 5 0 6 0;
#X connect 6 0 22 0;
#X connect 7 0 3 0;
#X connect 8 0 22 0;
#X connect 9 0 17 0;
#X connect 10 0 17 0;
#X connect 12 0 22 0;
#X connect 13 0 22 0;
#X connect 14 0 22 0;
#X connect 15 0 22 0;
#X connect 16 0 22 0;
#X connect 17 0 7 0;
#X connect 18 0 22 0;
#X connect 19 0 22 0;
#X connect 20 0 22 0;
#X connect 21 0 22 0;
#X connect 22 0 11 0;
#X connect 22 1 31 0;
#X connect 23 0 22 0;
#X connect 24 0 22 0;
#X connect 25 0 22 0;
#X connect 26 0 22 0;
#X connect 27 0 22 0;
#X connect 28 0 22 0;
#X connect 29 0 22 0;
#X connect 30 0 22 0;
