#N canvas 310 192 549 374 10;
#X obj 135 195 textfile;
#X obj 139 44 t b b b;
#X msg 143 166 rewind;
#X obj 139 15 inlet;
#X obj 119 265 outlet;
#X obj 185 74 symbol \$1;
#X msg 170 111 read \$1;
#X obj 263 17 inlet;
#X obj 266 58 t b b;
#X obj 327 25 inlet;
#X obj 271 114 bng 15 250 50 0 empty empty empty 17 7 0 10 -262144
-1 -1;
#X obj 30 82 metro 1;
#X obj 192 253 outlet;
#X msg 90 60 stop;
#X connect 0 0 4 0;
#X connect 0 1 12 0;
#X connect 0 1 13 0;
#X connect 1 0 11 0;
#X connect 1 1 2 0;
#X connect 1 2 5 0;
#X connect 2 0 0 0;
#X connect 3 0 1 0;
#X connect 5 0 6 0;
#X connect 6 0 0 0;
#X connect 7 0 8 0;
#X connect 8 0 2 0;
#X connect 8 1 5 0;
#X connect 9 0 10 0;
#X connect 10 0 0 0;
#X connect 11 0 0 0;
#X connect 13 0 11 0;
