#N canvas 0 50 537 465 10;
#X obj 144 10 bng 15 250 50 0 empty empty empty 17 7 0 10 -262144 -1
-1;
#X obj 146 188 multicycle 12;
#X obj 156 117 inlist in.txt;
#X obj 283 337 outlist out.txt;
#X obj 108 72 t b b b;
#X obj 112 213 list prepend in;
#X obj 184 224 list prepend out;
#X obj 171 167 print;
#X obj 331 235 t b b;
#X obj 57 12 inlet;
#X obj 312 287 outlet;
#X connect 0 0 4 0;
#X connect 1 0 6 0;
#X connect 2 0 5 0;
#X connect 2 0 1 0;
#X connect 2 1 8 0;
#X connect 4 2 2 0;
#X connect 5 0 3 0;
#X connect 6 0 3 0;
#X connect 8 0 10 0;
#X connect 8 1 3 1;
#X connect 9 0 4 0;
